<svg width="22" height="22" viewBox="0 0 22 22" fill="none" xmlns="http://www.w3.org/2000/svg">
    <path d="M18.5599 3.43992H17.72V1.75987C17.72 1.29629 17.3436 0.919922 16.8799 0.919922H16.0399C15.5762 0.919922 15.2 1.29629 15.2 1.75987V3.43992H6.79987V1.75987C6.79987 1.29629 6.42365 0.919922 5.95992 0.919922H5.11997C4.65624 0.919922 4.27987 1.29629 4.27987 1.75987V3.43992H3.43992C2.05057 3.43992 0.919922 4.57057 0.919922 5.95992V18.5599C0.919922 19.9493 2.05057 21.0799 3.43992 21.0799H18.5599C19.9493 21.0799 21.0799 19.9493 21.0799 18.5599V5.95992C21.0799 4.57057 19.9493 3.43992 18.5599 3.43992ZM19.3999 18.5599C19.3999 19.0227 19.0227 19.3999 18.5599 19.3999H3.43992C2.97711 19.3999 2.59997 19.0227 2.59997 18.5599V9.35355H19.3999V18.5599Z" fill="#333333"/>
</svg>
