<svg width="18" height="18" viewBox="0 0 18 18" fill="none" xmlns="http://www.w3.org/2000/svg">
    <rect width="18" height="18" rx="2" fill="#F2F2F2"/>
    <path d="M15.4328 7.85378C15.3487 7.95763 15.2603 8.05874 15.1672 8.15651C14.2245 9.14651 12.9546 9.70092 11.5914 9.71766C11.5703 9.71791 11.5491 9.71805 11.5281 9.71805C10.5138 9.71805 9.54675 9.41925 8.72434 8.86189C8.34869 9.00255 7.90907 8.92214 7.60693 8.62001C7.19462 8.2077 7.19462 7.5392 7.60693 7.12685C8.01925 6.71454 8.68774 6.71454 9.10005 7.12685C9.34861 7.37541 9.44708 7.71709 9.39596 8.03962C10.0413 8.45397 10.793 8.6713 11.5785 8.66192C12.6548 8.64873 13.6577 8.21065 14.4025 7.42846C14.5023 7.32373 14.5948 7.21446 14.6805 7.10151L11.089 3.51001L12.73 1.86013C13.1624 1.42775 13.8659 1.42775 14.2984 1.86013C15.7218 3.28354 15.8587 5.55045 14.6805 7.10158L15.4328 7.85378C16.1709 6.94257 16.5606 5.80663 16.5366 4.61332C16.5099 3.29173 15.9802 2.04878 15.0449 1.11352C14.2009 0.269452 12.8275 0.269452 11.9834 1.11352L10.3344 2.75535L9.41449 1.83545L5.59751 5.65244C5.10866 5.45022 4.57928 5.3444 4.04722 5.3444C1.81557 5.34436 0 7.15997 0 9.39158V12.559H1.05578V9.39158C1.05578 8.80943 1.5294 8.33581 2.11155 8.33581C2.333 8.33581 2.54482 8.4051 2.7206 8.52931L2.3155 8.93441L10.901 17.5199L18 10.421L15.4328 7.85378ZM3.47284 7.7771C3.09656 7.45968 2.61647 7.27999 2.11159 7.27999C2.04761 7.27999 1.98439 7.28333 1.92185 7.28892C2.46438 6.74059 3.21669 6.40018 4.04719 6.40018C4.29251 6.40018 4.53199 6.4289 4.76402 6.48589L3.47284 7.7771Z" fill="black"/>
</svg>
