<svg width="18" height="20" viewBox="0 0 18 20" fill="none" xmlns="http://www.w3.org/2000/svg">
<path d="M17.1201 4.47037L16.6785 3.14667C16.5104 2.64252 16.0403 2.30377 15.509 2.30377H11.7976V1.09543C11.7976 0.491486 11.3065 0 10.7027 0H7.30401C6.70037 0 6.20919 0.491486 6.20919 1.09543V2.30377H2.49795C1.96648 2.30377 1.49636 2.64252 1.32821 3.14667L0.886618 4.47037C0.786063 4.77173 0.837027 5.10544 1.02273 5.36316C1.20843 5.62088 1.50887 5.77484 1.82656 5.77484H2.28814L3.30407 18.3376C3.3796 19.2697 4.17061 20 5.10522 20H13.1077C14.0421 20 14.8333 19.2697 14.9087 18.3374L15.9246 5.77484H16.1802C16.4979 5.77484 16.7983 5.62088 16.984 5.36331C17.1697 5.10559 17.2207 4.77173 17.1201 4.47037ZM7.38106 1.17188H10.6257V2.30377H7.38106V1.17188ZM13.7406 18.243C13.7141 18.5712 13.4361 18.8281 13.1077 18.8281H5.10522C4.77685 18.8281 4.49883 18.5712 4.47228 18.243L3.46383 5.77484H14.7489L13.7406 18.243ZM2.07787 4.60297L2.43996 3.51746C2.4482 3.49243 2.47155 3.47565 2.49795 3.47565H15.509C15.5354 3.47565 15.5586 3.49243 15.5669 3.51746L15.929 4.60297H2.07787Z" fill="black"/>
</svg>
